# xmcd CD database file
#
# Track frame offsets:
#	183
#	40758
#	66408
#	77583
#	88758
#	103483
#	116345
#	141633
#	164958
#	184920
#	205170
#	218883
#	254058
#
# Disc length: 3754 seconds
#
# Revision: 4
# Processed by: cddbd v1.5.1PL2 Copyright (c) Steve Scherf et al.
# Submitted via: CDex 1.51
#
DISCID=d10ea80d
DTITLE=武満徹 - My Way of Life
DYEAR=1997
DGENRE=Contemporary music
TTITLE0=Ceremonial - An Autumn Ode (1992)
TTITLE1=Family Tree (1992) Once upon a time
TTITLE2=Family Tree (1992) Grandpa
TTITLE3=Family Tree (1992) Grandma
TTITLE4=Family Tree (1992) Dad
TTITLE5=Family Tree (1992) Mom
TTITLE6=Family Tree (1992) A distant place
TTITLE7=My Way of Life (1990) I was once asked to write about my way of life
TTITLE8=My Way of Life (1990) To a discerning eye
TTITLE9=My Way of Life (1990) A human being has its own way of life
TTITLE10=My Way of Life (1990) It is not time that passes on
TTITLE11=Requiem for Strings (1957)
TTITLE12=Air (1995)
EXTD=YEAR: 1997
EXTT0=
EXTT1=
EXTT2=
EXTT3=
EXTT4=
EXTT5=
EXTT6=
EXTT7=
EXTT8=
EXTT9=
EXTT10=
EXTT11=
EXTT12=
PLAYORDER=
